<mxfile host="app.diagrams.net" agent="Mozilla/5.0 (Windows NT 10.0; Win64; x64) AppleWebKit/537.36 (KHTML, like Gecko) Chrome/136.0.0.0 Safari/537.36 Edg/136.0.0.0" version="26.2.14" pages="8">
  <diagram name="第 1 页" id="DrFP2PgMEQAhw0Amren8">
    <mxGraphModel dx="827" dy="470" grid="0" gridSize="10" guides="1" tooltips="1" connect="1" arrows="1" fold="1" page="0" pageScale="1" pageWidth="827" pageHeight="1169" math="0" shadow="0">
      <root>
        <object label="" id="0">
          <mxCell />
        </object>
        <mxCell id="1" parent="0" />
        <mxCell id="YJTyEwzJqSwXemOWvdWT-112" value="电影" style="whiteSpace=wrap;strokeWidth=2;fontFamily=宋体;" vertex="1" parent="1">
          <mxGeometry x="24" y="55" width="92" height="54" as="geometry" />
        </mxCell>
        <mxCell id="YJTyEwzJqSwXemOWvdWT-113" value="电影分类" style="whiteSpace=wrap;strokeWidth=2;fontFamily=宋体;" vertex="1" parent="1">
          <mxGeometry x="387" y="278" width="92" height="54" as="geometry" />
        </mxCell>
        <mxCell id="YJTyEwzJqSwXemOWvdWT-126" value="电影" style="whiteSpace=wrap;strokeWidth=2;fontFamily=宋体;" vertex="1" parent="1">
          <mxGeometry x="196.33999999999997" y="172" width="92" height="54" as="geometry" />
        </mxCell>
        <mxCell id="YJTyEwzJqSwXemOWvdWT-128" value="查询" style="html=1;whiteSpace=wrap;aspect=fixed;shape=isoRectangle;strokeWidth=2;fontFamily=宋体;" vertex="1" parent="1">
          <mxGeometry x="194.33" y="55" width="93.34" height="56" as="geometry" />
        </mxCell>
        <mxCell id="YJTyEwzJqSwXemOWvdWT-130" value="用户" style="whiteSpace=wrap;strokeWidth=2;fontFamily=宋体;" vertex="1" parent="1">
          <mxGeometry x="387" y="55" width="92" height="54" as="geometry" />
        </mxCell>
        <mxCell id="YJTyEwzJqSwXemOWvdWT-146" value="查询" style="html=1;whiteSpace=wrap;aspect=fixed;shape=isoRectangle;strokeWidth=2;fontFamily=宋体;" vertex="1" parent="1">
          <mxGeometry x="385.65999999999997" y="165" width="93.34" height="56" as="geometry" />
        </mxCell>
        <mxCell id="YJTyEwzJqSwXemOWvdWT-155" value="" style="endArrow=none;html=1;rounded=0;exitX=1;exitY=0.5;exitDx=0;exitDy=0;entryX=-0.001;entryY=0.501;entryDx=0;entryDy=0;entryPerimeter=0;" edge="1" parent="1" source="YJTyEwzJqSwXemOWvdWT-112" target="YJTyEwzJqSwXemOWvdWT-128">
          <mxGeometry width="50" height="50" relative="1" as="geometry">
            <mxPoint x="124" y="107" as="sourcePoint" />
            <mxPoint x="174" y="57" as="targetPoint" />
          </mxGeometry>
        </mxCell>
        <mxCell id="YJTyEwzJqSwXemOWvdWT-164" value="N" style="edgeLabel;html=1;align=center;verticalAlign=middle;resizable=0;points=[];" vertex="1" connectable="0" parent="YJTyEwzJqSwXemOWvdWT-155">
          <mxGeometry x="-0.0091" relative="1" as="geometry">
            <mxPoint as="offset" />
          </mxGeometry>
        </mxCell>
        <mxCell id="YJTyEwzJqSwXemOWvdWT-156" value="" style="endArrow=none;html=1;rounded=0;exitX=1;exitY=0.489;exitDx=0;exitDy=0;exitPerimeter=0;entryX=0;entryY=0.5;entryDx=0;entryDy=0;" edge="1" parent="1" source="YJTyEwzJqSwXemOWvdWT-128" target="YJTyEwzJqSwXemOWvdWT-130">
          <mxGeometry width="50" height="50" relative="1" as="geometry">
            <mxPoint x="354" y="175" as="sourcePoint" />
            <mxPoint x="404" y="125" as="targetPoint" />
          </mxGeometry>
        </mxCell>
        <mxCell id="YJTyEwzJqSwXemOWvdWT-165" value="1" style="edgeLabel;html=1;align=center;verticalAlign=middle;resizable=0;points=[];" vertex="1" connectable="0" parent="YJTyEwzJqSwXemOWvdWT-156">
          <mxGeometry x="0.0286" y="-1" relative="1" as="geometry">
            <mxPoint as="offset" />
          </mxGeometry>
        </mxCell>
        <mxCell id="YJTyEwzJqSwXemOWvdWT-157" value="查询" style="html=1;whiteSpace=wrap;aspect=fixed;shape=isoRectangle;strokeWidth=2;fontFamily=宋体;" vertex="1" parent="1">
          <mxGeometry x="22.660000000000025" y="172" width="93.34" height="56" as="geometry" />
        </mxCell>
        <mxCell id="YJTyEwzJqSwXemOWvdWT-158" value="" style="endArrow=none;html=1;rounded=0;exitX=1;exitY=0.482;exitDx=0;exitDy=0;exitPerimeter=0;entryX=0;entryY=0.5;entryDx=0;entryDy=0;" edge="1" parent="1" source="YJTyEwzJqSwXemOWvdWT-157" target="YJTyEwzJqSwXemOWvdWT-126">
          <mxGeometry width="50" height="50" relative="1" as="geometry">
            <mxPoint x="355" y="175" as="sourcePoint" />
            <mxPoint x="405" y="125" as="targetPoint" />
          </mxGeometry>
        </mxCell>
        <mxCell id="YJTyEwzJqSwXemOWvdWT-172" value="1" style="edgeLabel;html=1;align=center;verticalAlign=middle;resizable=0;points=[];" vertex="1" connectable="0" parent="YJTyEwzJqSwXemOWvdWT-158">
          <mxGeometry x="-0.0791" y="1" relative="1" as="geometry">
            <mxPoint as="offset" />
          </mxGeometry>
        </mxCell>
        <mxCell id="YJTyEwzJqSwXemOWvdWT-159" value="" style="endArrow=none;html=1;rounded=0;exitX=0.5;exitY=1;exitDx=0;exitDy=0;entryX=0.494;entryY=0.096;entryDx=0;entryDy=0;entryPerimeter=0;" edge="1" parent="1" source="YJTyEwzJqSwXemOWvdWT-126" target="YJTyEwzJqSwXemOWvdWT-160">
          <mxGeometry width="50" height="50" relative="1" as="geometry">
            <mxPoint x="355" y="175" as="sourcePoint" />
            <mxPoint x="242" y="256" as="targetPoint" />
          </mxGeometry>
        </mxCell>
        <mxCell id="YJTyEwzJqSwXemOWvdWT-171" value="1" style="edgeLabel;html=1;align=center;verticalAlign=middle;resizable=0;points=[];" vertex="1" connectable="0" parent="YJTyEwzJqSwXemOWvdWT-159">
          <mxGeometry x="-0.0812" y="-1" relative="1" as="geometry">
            <mxPoint as="offset" />
          </mxGeometry>
        </mxCell>
        <mxCell id="YJTyEwzJqSwXemOWvdWT-160" value="管理" style="html=1;whiteSpace=wrap;aspect=fixed;shape=isoRectangle;strokeWidth=2;fontFamily=宋体;" vertex="1" parent="1">
          <mxGeometry x="196.34" y="276" width="93.34" height="56" as="geometry" />
        </mxCell>
        <mxCell id="YJTyEwzJqSwXemOWvdWT-161" value="" style="endArrow=none;html=1;rounded=0;exitX=0.988;exitY=0.526;exitDx=0;exitDy=0;exitPerimeter=0;entryX=0;entryY=0.5;entryDx=0;entryDy=0;" edge="1" parent="1" source="YJTyEwzJqSwXemOWvdWT-160" target="YJTyEwzJqSwXemOWvdWT-113">
          <mxGeometry width="50" height="50" relative="1" as="geometry">
            <mxPoint x="355" y="175" as="sourcePoint" />
            <mxPoint x="405" y="125" as="targetPoint" />
            <Array as="points" />
          </mxGeometry>
        </mxCell>
        <mxCell id="YJTyEwzJqSwXemOWvdWT-170" value="N" style="edgeLabel;html=1;align=center;verticalAlign=middle;resizable=0;points=[];" vertex="1" connectable="0" parent="YJTyEwzJqSwXemOWvdWT-161">
          <mxGeometry x="-0.0646" relative="1" as="geometry">
            <mxPoint as="offset" />
          </mxGeometry>
        </mxCell>
        <mxCell id="YJTyEwzJqSwXemOWvdWT-166" value="" style="endArrow=none;html=1;rounded=0;entryX=0.5;entryY=1;entryDx=0;entryDy=0;" edge="1" parent="1" source="YJTyEwzJqSwXemOWvdWT-146" target="YJTyEwzJqSwXemOWvdWT-130">
          <mxGeometry width="50" height="50" relative="1" as="geometry">
            <mxPoint x="355" y="175" as="sourcePoint" />
            <mxPoint x="405" y="125" as="targetPoint" />
          </mxGeometry>
        </mxCell>
        <mxCell id="YJTyEwzJqSwXemOWvdWT-167" value="1" style="edgeLabel;html=1;align=center;verticalAlign=middle;resizable=0;points=[];" vertex="1" connectable="0" parent="YJTyEwzJqSwXemOWvdWT-166">
          <mxGeometry x="0.027" y="1" relative="1" as="geometry">
            <mxPoint as="offset" />
          </mxGeometry>
        </mxCell>
        <mxCell id="YJTyEwzJqSwXemOWvdWT-168" value="" style="endArrow=none;html=1;rounded=0;exitX=0.5;exitY=0;exitDx=0;exitDy=0;" edge="1" parent="1" source="YJTyEwzJqSwXemOWvdWT-113">
          <mxGeometry width="50" height="50" relative="1" as="geometry">
            <mxPoint x="355" y="255" as="sourcePoint" />
            <mxPoint x="433" y="220" as="targetPoint" />
            <Array as="points" />
          </mxGeometry>
        </mxCell>
        <mxCell id="YJTyEwzJqSwXemOWvdWT-169" value="N" style="edgeLabel;html=1;align=center;verticalAlign=middle;resizable=0;points=[];" vertex="1" connectable="0" parent="YJTyEwzJqSwXemOWvdWT-168">
          <mxGeometry x="0.02" y="-1" relative="1" as="geometry">
            <mxPoint as="offset" />
          </mxGeometry>
        </mxCell>
        <mxCell id="YJTyEwzJqSwXemOWvdWT-173" value="" style="endArrow=none;html=1;rounded=0;entryX=0.5;entryY=1;entryDx=0;entryDy=0;" edge="1" parent="1" source="YJTyEwzJqSwXemOWvdWT-157" target="YJTyEwzJqSwXemOWvdWT-112">
          <mxGeometry width="50" height="50" relative="1" as="geometry">
            <mxPoint x="355" y="255" as="sourcePoint" />
            <mxPoint x="405" y="205" as="targetPoint" />
            <Array as="points" />
          </mxGeometry>
        </mxCell>
        <mxCell id="YJTyEwzJqSwXemOWvdWT-174" value="N" style="edgeLabel;html=1;align=center;verticalAlign=middle;resizable=0;points=[];" vertex="1" connectable="0" parent="YJTyEwzJqSwXemOWvdWT-173">
          <mxGeometry x="-0.0171" relative="1" as="geometry">
            <mxPoint as="offset" />
          </mxGeometry>
        </mxCell>
      </root>
    </mxGraphModel>
  </diagram>
  <diagram id="RiR3brOHmNAcNE385Se4" name="第 2 页">
    <mxGraphModel dx="1834" dy="988" grid="0" gridSize="10" guides="1" tooltips="1" connect="1" arrows="1" fold="1" page="0" pageScale="1" pageWidth="827" pageHeight="1169" math="0" shadow="0">
      <root>
        <mxCell id="0" />
        <mxCell id="1" parent="0" />
        <mxCell id="XmP_CwQDGegN2Tho0HLC-1" value="管理员" style="whiteSpace=wrap;strokeWidth=2;fontFamily=宋体;" vertex="1" parent="1">
          <mxGeometry x="-438" y="14" width="108" height="54" as="geometry" />
        </mxCell>
        <mxCell id="XmP_CwQDGegN2Tho0HLC-13" value="" style="curved=1;startArrow=none;endArrow=block;exitX=0;exitY=0.57;entryX=0.5;entryY=0;rounded=0;" edge="1" parent="1" source="XmP_CwQDGegN2Tho0HLC-6">
          <mxGeometry relative="1" as="geometry">
            <Array as="points">
              <mxPoint x="66" y="99" />
            </Array>
            <mxPoint x="-154" y="464" as="targetPoint" />
          </mxGeometry>
        </mxCell>
        <mxCell id="XmP_CwQDGegN2Tho0HLC-31" value="ID" style="ellipse;whiteSpace=wrap;html=1;strokeWidth=2;fontFamily=宋体;" vertex="1" parent="1">
          <mxGeometry x="-262" y="-161" width="126" height="61" as="geometry" />
        </mxCell>
        <mxCell id="XmP_CwQDGegN2Tho0HLC-32" value="最后登录时间" style="ellipse;whiteSpace=wrap;html=1;strokeWidth=2;fontFamily=宋体;" vertex="1" parent="1">
          <mxGeometry x="-265" y="-17" width="126" height="61" as="geometry" />
        </mxCell>
        <mxCell id="XmP_CwQDGegN2Tho0HLC-33" value="电子邮箱" style="ellipse;whiteSpace=wrap;html=1;strokeWidth=2;fontFamily=宋体;" vertex="1" parent="1">
          <mxGeometry x="-265" y="124" width="126" height="61" as="geometry" />
        </mxCell>
        <mxCell id="XmP_CwQDGegN2Tho0HLC-34" value="密码" style="ellipse;whiteSpace=wrap;html=1;strokeWidth=2;fontFamily=宋体;" vertex="1" parent="1">
          <mxGeometry x="-265" y="-88" width="126" height="61" as="geometry" />
        </mxCell>
        <mxCell id="XmP_CwQDGegN2Tho0HLC-35" value="名字" style="ellipse;whiteSpace=wrap;html=1;strokeWidth=2;fontFamily=宋体;" vertex="1" parent="1">
          <mxGeometry x="-268" y="51" width="126" height="61" as="geometry" />
        </mxCell>
        <mxCell id="XmP_CwQDGegN2Tho0HLC-36" value="创建时间" style="ellipse;whiteSpace=wrap;html=1;strokeWidth=2;fontFamily=宋体;" vertex="1" parent="1">
          <mxGeometry x="-265" y="195" width="126" height="61" as="geometry" />
        </mxCell>
        <mxCell id="XmP_CwQDGegN2Tho0HLC-47" value="" style="endArrow=none;html=1;rounded=0;entryX=0;entryY=0.5;entryDx=0;entryDy=0;fontFamily=宋体;" edge="1" parent="1" target="XmP_CwQDGegN2Tho0HLC-31">
          <mxGeometry width="50" height="50" relative="1" as="geometry">
            <mxPoint x="-330" y="39" as="sourcePoint" />
            <mxPoint x="-144" y="76" as="targetPoint" />
          </mxGeometry>
        </mxCell>
        <mxCell id="XmP_CwQDGegN2Tho0HLC-50" value="" style="endArrow=none;html=1;rounded=0;entryX=0;entryY=0.5;entryDx=0;entryDy=0;exitX=1;exitY=0.5;exitDx=0;exitDy=0;fontFamily=宋体;" edge="1" parent="1" source="XmP_CwQDGegN2Tho0HLC-1" target="XmP_CwQDGegN2Tho0HLC-34">
          <mxGeometry width="50" height="50" relative="1" as="geometry">
            <mxPoint x="-328" y="42" as="sourcePoint" />
            <mxPoint x="-144" y="76" as="targetPoint" />
          </mxGeometry>
        </mxCell>
        <mxCell id="XmP_CwQDGegN2Tho0HLC-51" value="" style="endArrow=none;html=1;rounded=0;entryX=0;entryY=0.5;entryDx=0;entryDy=0;exitX=1;exitY=0.5;exitDx=0;exitDy=0;fontFamily=宋体;" edge="1" parent="1" source="XmP_CwQDGegN2Tho0HLC-1" target="XmP_CwQDGegN2Tho0HLC-32">
          <mxGeometry width="50" height="50" relative="1" as="geometry">
            <mxPoint x="-333" y="45" as="sourcePoint" />
            <mxPoint x="-144" y="76" as="targetPoint" />
          </mxGeometry>
        </mxCell>
        <mxCell id="XmP_CwQDGegN2Tho0HLC-52" value="" style="endArrow=none;html=1;rounded=0;exitX=1;exitY=0.5;exitDx=0;exitDy=0;entryX=0;entryY=0.5;entryDx=0;entryDy=0;fontFamily=宋体;" edge="1" parent="1" source="XmP_CwQDGegN2Tho0HLC-1" target="XmP_CwQDGegN2Tho0HLC-35">
          <mxGeometry width="50" height="50" relative="1" as="geometry">
            <mxPoint x="-331" y="45" as="sourcePoint" />
            <mxPoint x="-263" y="123" as="targetPoint" />
          </mxGeometry>
        </mxCell>
        <mxCell id="XmP_CwQDGegN2Tho0HLC-53" value="" style="endArrow=none;html=1;rounded=0;exitX=1;exitY=0.5;exitDx=0;exitDy=0;entryX=0;entryY=0.5;entryDx=0;entryDy=0;fontFamily=宋体;" edge="1" parent="1" source="XmP_CwQDGegN2Tho0HLC-1" target="XmP_CwQDGegN2Tho0HLC-33">
          <mxGeometry width="50" height="50" relative="1" as="geometry">
            <mxPoint x="-194" y="126" as="sourcePoint" />
            <mxPoint x="-144" y="76" as="targetPoint" />
            <Array as="points" />
          </mxGeometry>
        </mxCell>
        <mxCell id="XmP_CwQDGegN2Tho0HLC-56" value="" style="endArrow=none;html=1;rounded=0;entryX=1;entryY=0.5;entryDx=0;entryDy=0;exitX=0;exitY=0.5;exitDx=0;exitDy=0;fontFamily=宋体;" edge="1" parent="1" source="XmP_CwQDGegN2Tho0HLC-36" target="XmP_CwQDGegN2Tho0HLC-1">
          <mxGeometry width="50" height="50" relative="1" as="geometry">
            <mxPoint x="-264" y="304" as="sourcePoint" />
            <mxPoint x="-144" y="76" as="targetPoint" />
          </mxGeometry>
        </mxCell>
      </root>
    </mxGraphModel>
  </diagram>
  <diagram id="BtPv-WlM6pnq1rgZ5JAB" name="第 3 页">
    <mxGraphModel dx="1434" dy="988" grid="0" gridSize="10" guides="1" tooltips="1" connect="1" arrows="1" fold="1" page="0" pageScale="1" pageWidth="827" pageHeight="1169" math="0" shadow="0">
      <root>
        <mxCell id="0" />
        <mxCell id="1" parent="0" />
        <mxCell id="boyT9uORQX3uJ_VdoQJ2-1" value="电影" style="whiteSpace=wrap;strokeWidth=2;fontFamily=宋体;" parent="1" vertex="1">
          <mxGeometry x="-281" y="144" width="108" height="54" as="geometry" />
        </mxCell>
        <mxCell id="boyT9uORQX3uJ_VdoQJ2-2" value="电影名称" style="ellipse;whiteSpace=wrap;html=1;strokeWidth=2;fontFamily=宋体;" parent="1" vertex="1">
          <mxGeometry x="-114" y="-41" width="126" height="61" as="geometry" />
        </mxCell>
        <mxCell id="boyT9uORQX3uJ_VdoQJ2-3" value="国家" style="ellipse;whiteSpace=wrap;html=1;strokeWidth=2;fontFamily=宋体;" parent="1" vertex="1">
          <mxGeometry x="-114" y="83" width="126" height="61" as="geometry" />
        </mxCell>
        <mxCell id="boyT9uORQX3uJ_VdoQJ2-4" value="演员" style="ellipse;whiteSpace=wrap;html=1;strokeWidth=2;fontFamily=宋体;" parent="1" vertex="1">
          <mxGeometry x="-114" y="205" width="126" height="61" as="geometry" />
        </mxCell>
        <mxCell id="boyT9uORQX3uJ_VdoQJ2-5" value="导演" style="ellipse;whiteSpace=wrap;html=1;strokeWidth=2;fontFamily=宋体;" parent="1" vertex="1">
          <mxGeometry x="-114" y="22" width="126" height="61" as="geometry" />
        </mxCell>
        <mxCell id="boyT9uORQX3uJ_VdoQJ2-6" value="年份" style="ellipse;whiteSpace=wrap;html=1;strokeWidth=2;fontFamily=宋体;" parent="1" vertex="1">
          <mxGeometry x="-114" y="144" width="126" height="61" as="geometry" />
        </mxCell>
        <mxCell id="boyT9uORQX3uJ_VdoQJ2-7" value="" style="endArrow=none;html=1;rounded=0;entryX=0;entryY=0.5;entryDx=0;entryDy=0;fontFamily=宋体;" parent="1" target="boyT9uORQX3uJ_VdoQJ2-2" edge="1">
          <mxGeometry width="50" height="50" relative="1" as="geometry">
            <mxPoint x="-173" y="169" as="sourcePoint" />
            <mxPoint x="13" y="206" as="targetPoint" />
          </mxGeometry>
        </mxCell>
        <mxCell id="boyT9uORQX3uJ_VdoQJ2-8" value="" style="endArrow=none;html=1;rounded=0;entryX=0;entryY=0.5;entryDx=0;entryDy=0;exitX=1;exitY=0.5;exitDx=0;exitDy=0;fontFamily=宋体;" parent="1" source="boyT9uORQX3uJ_VdoQJ2-1" target="boyT9uORQX3uJ_VdoQJ2-5" edge="1">
          <mxGeometry width="50" height="50" relative="1" as="geometry">
            <mxPoint x="-171" y="172" as="sourcePoint" />
            <mxPoint x="13" y="206" as="targetPoint" />
          </mxGeometry>
        </mxCell>
        <mxCell id="boyT9uORQX3uJ_VdoQJ2-9" value="" style="endArrow=none;html=1;rounded=0;entryX=0;entryY=0.5;entryDx=0;entryDy=0;exitX=1;exitY=0.5;exitDx=0;exitDy=0;fontFamily=宋体;" parent="1" source="boyT9uORQX3uJ_VdoQJ2-1" target="boyT9uORQX3uJ_VdoQJ2-3" edge="1">
          <mxGeometry width="50" height="50" relative="1" as="geometry">
            <mxPoint x="-176" y="175" as="sourcePoint" />
            <mxPoint x="13" y="206" as="targetPoint" />
          </mxGeometry>
        </mxCell>
        <mxCell id="boyT9uORQX3uJ_VdoQJ2-10" value="" style="endArrow=none;html=1;rounded=0;exitX=1;exitY=0.5;exitDx=0;exitDy=0;entryX=0;entryY=0.5;entryDx=0;entryDy=0;fontFamily=宋体;" parent="1" source="boyT9uORQX3uJ_VdoQJ2-1" target="boyT9uORQX3uJ_VdoQJ2-6" edge="1">
          <mxGeometry width="50" height="50" relative="1" as="geometry">
            <mxPoint x="-174" y="175" as="sourcePoint" />
            <mxPoint x="-106" y="253" as="targetPoint" />
          </mxGeometry>
        </mxCell>
        <mxCell id="boyT9uORQX3uJ_VdoQJ2-11" value="" style="endArrow=none;html=1;rounded=0;exitX=1;exitY=0.5;exitDx=0;exitDy=0;entryX=0;entryY=0.5;entryDx=0;entryDy=0;fontFamily=宋体;" parent="1" source="boyT9uORQX3uJ_VdoQJ2-1" target="boyT9uORQX3uJ_VdoQJ2-4" edge="1">
          <mxGeometry width="50" height="50" relative="1" as="geometry">
            <mxPoint x="-37" y="256" as="sourcePoint" />
            <mxPoint x="13" y="206" as="targetPoint" />
            <Array as="points" />
          </mxGeometry>
        </mxCell>
        <mxCell id="boyT9uORQX3uJ_VdoQJ2-12" value="" style="endArrow=none;html=1;rounded=0;entryX=1;entryY=0.5;entryDx=0;entryDy=0;exitX=0;exitY=0.5;exitDx=0;exitDy=0;fontFamily=宋体;" parent="1" source="51MGI4vXFoWYIL4LoOyX-1" target="boyT9uORQX3uJ_VdoQJ2-1" edge="1">
          <mxGeometry width="50" height="50" relative="1" as="geometry">
            <mxPoint x="-108" y="356" as="sourcePoint" />
            <mxPoint x="13" y="206" as="targetPoint" />
          </mxGeometry>
        </mxCell>
        <mxCell id="51MGI4vXFoWYIL4LoOyX-1" value="评分" style="ellipse;whiteSpace=wrap;html=1;strokeWidth=2;fontFamily=宋体;" parent="1" vertex="1">
          <mxGeometry x="-114" y="266" width="126" height="61" as="geometry" />
        </mxCell>
        <mxCell id="51MGI4vXFoWYIL4LoOyX-2" value="电影图片" style="ellipse;whiteSpace=wrap;html=1;strokeWidth=2;fontFamily=宋体;" parent="1" vertex="1">
          <mxGeometry x="-114" y="327" width="126" height="61" as="geometry" />
        </mxCell>
        <mxCell id="51MGI4vXFoWYIL4LoOyX-3" value="电影链接" style="ellipse;whiteSpace=wrap;html=1;strokeWidth=2;fontFamily=宋体;" parent="1" vertex="1">
          <mxGeometry x="-114" y="388" width="126" height="61" as="geometry" />
        </mxCell>
        <mxCell id="51MGI4vXFoWYIL4LoOyX-4" value="" style="endArrow=none;html=1;rounded=0;entryX=1;entryY=0.5;entryDx=0;entryDy=0;exitX=0;exitY=0.5;exitDx=0;exitDy=0;fontFamily=宋体;" parent="1" source="51MGI4vXFoWYIL4LoOyX-2" edge="1">
          <mxGeometry width="50" height="50" relative="1" as="geometry">
            <mxPoint x="-114" y="298.5" as="sourcePoint" />
            <mxPoint x="-173" y="172.5" as="targetPoint" />
          </mxGeometry>
        </mxCell>
        <mxCell id="51MGI4vXFoWYIL4LoOyX-5" value="" style="endArrow=none;html=1;rounded=0;entryX=1;entryY=0.5;entryDx=0;entryDy=0;exitX=0;exitY=0.5;exitDx=0;exitDy=0;fontFamily=宋体;" parent="1" source="51MGI4vXFoWYIL4LoOyX-3" target="boyT9uORQX3uJ_VdoQJ2-1" edge="1">
          <mxGeometry width="50" height="50" relative="1" as="geometry">
            <mxPoint x="-94" y="317" as="sourcePoint" />
            <mxPoint x="-153" y="191" as="targetPoint" />
          </mxGeometry>
        </mxCell>
      </root>
    </mxGraphModel>
  </diagram>
  <diagram id="hwWxXSUQ6HEYZIvcNSm0" name="第 4 页">
    <mxGraphModel dx="1673" dy="588" grid="0" gridSize="10" guides="1" tooltips="1" connect="1" arrows="1" fold="1" page="0" pageScale="1" pageWidth="827" pageHeight="1169" math="0" shadow="0">
      <root>
        <mxCell id="0" />
        <mxCell id="1" parent="0" />
        <mxCell id="Qv6Nup577lyjumEie7bG-1" value="电影相似度" style="whiteSpace=wrap;strokeWidth=2;fontFamily=宋体;" parent="1" vertex="1">
          <mxGeometry x="-281" y="144" width="108" height="54" as="geometry" />
        </mxCell>
        <mxCell id="Qv6Nup577lyjumEie7bG-2" value="电影相似度" style="ellipse;whiteSpace=wrap;html=1;strokeWidth=2;fontFamily=宋体;" parent="1" vertex="1">
          <mxGeometry x="-105" y="115" width="126" height="61" as="geometry" />
        </mxCell>
        <mxCell id="Qv6Nup577lyjumEie7bG-5" value="电影来源ID" style="ellipse;whiteSpace=wrap;html=1;strokeWidth=2;fontFamily=宋体;" parent="1" vertex="1">
          <mxGeometry x="-103" y="176" width="126" height="61" as="geometry" />
        </mxCell>
        <mxCell id="Qv6Nup577lyjumEie7bG-7" value="" style="endArrow=none;html=1;rounded=0;entryX=0;entryY=0.5;entryDx=0;entryDy=0;fontFamily=宋体;" parent="1" target="Qv6Nup577lyjumEie7bG-2" edge="1">
          <mxGeometry width="50" height="50" relative="1" as="geometry">
            <mxPoint x="-173" y="169" as="sourcePoint" />
            <mxPoint x="13" y="206" as="targetPoint" />
          </mxGeometry>
        </mxCell>
        <mxCell id="Qv6Nup577lyjumEie7bG-8" value="" style="endArrow=none;html=1;rounded=0;entryX=0;entryY=0.5;entryDx=0;entryDy=0;exitX=1;exitY=0.5;exitDx=0;exitDy=0;fontFamily=宋体;" parent="1" source="Qv6Nup577lyjumEie7bG-1" target="Qv6Nup577lyjumEie7bG-5" edge="1">
          <mxGeometry width="50" height="50" relative="1" as="geometry">
            <mxPoint x="-171" y="172" as="sourcePoint" />
            <mxPoint x="13" y="206" as="targetPoint" />
          </mxGeometry>
        </mxCell>
        <mxCell id="zT8pI3cL2zYtJWw6jVpK-1" value="电影编号ID" style="ellipse;whiteSpace=wrap;html=1;strokeWidth=2;fontFamily=宋体;" vertex="1" parent="1">
          <mxGeometry x="-103" y="51" width="126" height="61" as="geometry" />
        </mxCell>
        <mxCell id="zT8pI3cL2zYtJWw6jVpK-2" value="电影目标ID" style="ellipse;whiteSpace=wrap;html=1;strokeWidth=2;fontFamily=宋体;" vertex="1" parent="1">
          <mxGeometry x="-103" y="234" width="126" height="61" as="geometry" />
        </mxCell>
        <mxCell id="zT8pI3cL2zYtJWw6jVpK-3" value="" style="endArrow=none;html=1;rounded=0;exitX=1;exitY=0.5;exitDx=0;exitDy=0;entryX=0;entryY=0.5;entryDx=0;entryDy=0;" edge="1" parent="1" source="Qv6Nup577lyjumEie7bG-1" target="zT8pI3cL2zYtJWw6jVpK-2">
          <mxGeometry width="50" height="50" relative="1" as="geometry">
            <mxPoint x="-107" y="267" as="sourcePoint" />
            <mxPoint x="-57" y="217" as="targetPoint" />
          </mxGeometry>
        </mxCell>
        <mxCell id="zT8pI3cL2zYtJWw6jVpK-4" value="" style="endArrow=none;html=1;rounded=0;exitX=1;exitY=0.5;exitDx=0;exitDy=0;entryX=0;entryY=0.5;entryDx=0;entryDy=0;" edge="1" parent="1" source="Qv6Nup577lyjumEie7bG-1" target="zT8pI3cL2zYtJWw6jVpK-1">
          <mxGeometry width="50" height="50" relative="1" as="geometry">
            <mxPoint x="-107" y="267" as="sourcePoint" />
            <mxPoint x="-57" y="217" as="targetPoint" />
          </mxGeometry>
        </mxCell>
      </root>
    </mxGraphModel>
  </diagram>
  <diagram id="RDo3NRC9zQUbgig8Xq9y" name="第 5 页">
    <mxGraphModel dx="893" dy="735" grid="0" gridSize="10" guides="1" tooltips="1" connect="1" arrows="1" fold="1" page="0" pageScale="1" pageWidth="827" pageHeight="1169" math="0" shadow="0">
      <root>
        <mxCell id="0" />
        <mxCell id="1" parent="0" />
        <mxCell id="RrJ1EJrfDbqmifcXgDFG-6" value="" style="endArrow=none;html=1;rounded=0;entryX=0;entryY=0.5;entryDx=0;entryDy=0;exitX=1;exitY=0.3333333333333333;exitDx=0;exitDy=0;exitPerimeter=0;strokeWidth=1;" edge="1" parent="1" target="RrJ1EJrfDbqmifcXgDFG-7">
          <mxGeometry width="50" height="50" relative="1" as="geometry">
            <mxPoint x="665" y="284.5" as="sourcePoint" />
            <mxPoint x="861" y="183" as="targetPoint" />
          </mxGeometry>
        </mxCell>
        <mxCell id="RrJ1EJrfDbqmifcXgDFG-7" value="登录" style="rounded=0;whiteSpace=wrap;html=1;strokeWidth=2;fontFamily=宋体;" vertex="1" parent="1">
          <mxGeometry x="845" y="93" width="120" height="51" as="geometry" />
        </mxCell>
        <mxCell id="RrJ1EJrfDbqmifcXgDFG-8" value="" style="endArrow=none;html=1;rounded=0;exitX=1;exitY=0.3333333333333333;exitDx=0;exitDy=0;exitPerimeter=0;entryX=0;entryY=0.5;entryDx=0;entryDy=0;strokeWidth=1;" edge="1" parent="1" target="RrJ1EJrfDbqmifcXgDFG-9">
          <mxGeometry width="50" height="50" relative="1" as="geometry">
            <mxPoint x="665" y="284.5" as="sourcePoint" />
            <mxPoint x="808" y="211" as="targetPoint" />
          </mxGeometry>
        </mxCell>
        <mxCell id="RrJ1EJrfDbqmifcXgDFG-9" value="用户管理" style="rounded=0;whiteSpace=wrap;html=1;strokeWidth=2;fontFamily=宋体;" vertex="1" parent="1">
          <mxGeometry x="845" y="172" width="120" height="50" as="geometry" />
        </mxCell>
        <mxCell id="RrJ1EJrfDbqmifcXgDFG-11" value="推荐模块" style="rounded=0;whiteSpace=wrap;html=1;strokeWidth=2;fontFamily=宋体;" vertex="1" parent="1">
          <mxGeometry x="845" y="244" width="120" height="51" as="geometry" />
        </mxCell>
        <mxCell id="RrJ1EJrfDbqmifcXgDFG-12" value="用户行为管理" style="rounded=0;whiteSpace=wrap;html=1;strokeWidth=2;fontFamily=宋体;" vertex="1" parent="1">
          <mxGeometry x="845" y="386" width="120" height="52" as="geometry" />
        </mxCell>
        <mxCell id="RrJ1EJrfDbqmifcXgDFG-13" value="电影推荐" style="rounded=0;whiteSpace=wrap;html=1;strokeWidth=2;fontFamily=宋体;" vertex="1" parent="1">
          <mxGeometry x="845" y="316" width="120" height="52" as="geometry" />
        </mxCell>
        <mxCell id="RrJ1EJrfDbqmifcXgDFG-14" value="删除用户" style="rounded=0;whiteSpace=wrap;html=1;strokeWidth=2;fontFamily=宋体;" vertex="1" parent="1">
          <mxGeometry x="1082" y="111" width="120" height="37" as="geometry" />
        </mxCell>
        <mxCell id="RrJ1EJrfDbqmifcXgDFG-17" value="添加用户" style="rounded=0;whiteSpace=wrap;html=1;strokeWidth=2;fontFamily=宋体;" vertex="1" parent="1">
          <mxGeometry x="1082" y="183.5" width="120" height="37" as="geometry" />
        </mxCell>
        <mxCell id="RrJ1EJrfDbqmifcXgDFG-19" value="添加电影" style="rounded=0;whiteSpace=wrap;html=1;strokeWidth=2;fontFamily=宋体;" vertex="1" parent="1">
          <mxGeometry x="1082" y="246" width="120" height="37" as="geometry" />
        </mxCell>
        <mxCell id="RrJ1EJrfDbqmifcXgDFG-20" value="删除电影" style="rounded=0;whiteSpace=wrap;html=1;strokeWidth=2;fontFamily=宋体;" vertex="1" parent="1">
          <mxGeometry x="1082" y="304" width="120" height="37" as="geometry" />
        </mxCell>
        <mxCell id="RrJ1EJrfDbqmifcXgDFG-21" value="电影信息修改" style="rounded=0;whiteSpace=wrap;html=1;strokeWidth=2;fontFamily=宋体;" vertex="1" parent="1">
          <mxGeometry x="1082" y="360" width="120" height="37" as="geometry" />
        </mxCell>
        <mxCell id="RrJ1EJrfDbqmifcXgDFG-22" value="评分管理" style="rounded=0;whiteSpace=wrap;html=1;strokeWidth=2;fontFamily=宋体;" vertex="1" parent="1">
          <mxGeometry x="1082" y="410" width="120" height="37" as="geometry" />
        </mxCell>
        <mxCell id="RrJ1EJrfDbqmifcXgDFG-23" value="标记管理" style="rounded=0;whiteSpace=wrap;html=1;strokeWidth=2;fontFamily=宋体;" vertex="1" parent="1">
          <mxGeometry x="1082" y="463" width="120" height="37" as="geometry" />
        </mxCell>
        <mxCell id="VFiOyekKrRisP1N4zeyX-1" value="评分管理" style="rounded=0;whiteSpace=wrap;html=1;strokeWidth=2;fontFamily=宋体;" vertex="1" parent="1">
          <mxGeometry x="1085" y="512" width="120" height="37" as="geometry" />
        </mxCell>
        <mxCell id="VFiOyekKrRisP1N4zeyX-3" value="" style="endArrow=none;html=1;rounded=0;exitX=1;exitY=0.3333333333333333;exitDx=0;exitDy=0;exitPerimeter=0;entryX=0;entryY=0.5;entryDx=0;entryDy=0;strokeWidth=1;" edge="1" parent="1" target="RrJ1EJrfDbqmifcXgDFG-11">
          <mxGeometry width="50" height="50" relative="1" as="geometry">
            <mxPoint x="665" y="284.5" as="sourcePoint" />
            <mxPoint x="810" y="330" as="targetPoint" />
          </mxGeometry>
        </mxCell>
        <mxCell id="VFiOyekKrRisP1N4zeyX-5" value="" style="endArrow=none;html=1;rounded=0;exitX=1;exitY=0.3333333333333333;exitDx=0;exitDy=0;exitPerimeter=0;entryX=0;entryY=0.5;entryDx=0;entryDy=0;strokeWidth=1;" edge="1" parent="1" target="RrJ1EJrfDbqmifcXgDFG-13">
          <mxGeometry width="50" height="50" relative="1" as="geometry">
            <mxPoint x="665" y="284.5" as="sourcePoint" />
            <mxPoint x="810" y="330" as="targetPoint" />
          </mxGeometry>
        </mxCell>
        <mxCell id="VFiOyekKrRisP1N4zeyX-6" value="" style="endArrow=none;html=1;rounded=0;entryX=0;entryY=0.5;entryDx=0;entryDy=0;exitX=1;exitY=0.3333333333333333;exitDx=0;exitDy=0;exitPerimeter=0;strokeWidth=1;" edge="1" parent="1" target="RrJ1EJrfDbqmifcXgDFG-12">
          <mxGeometry width="50" height="50" relative="1" as="geometry">
            <mxPoint x="665" y="284.5" as="sourcePoint" />
            <mxPoint x="851" y="401" as="targetPoint" />
          </mxGeometry>
        </mxCell>
        <mxCell id="VFiOyekKrRisP1N4zeyX-8" value="" style="endArrow=none;html=1;rounded=0;exitX=1;exitY=0.5;exitDx=0;exitDy=0;entryX=0;entryY=0.5;entryDx=0;entryDy=0;strokeWidth=1;fontFamily=宋体;" edge="1" parent="1" source="RrJ1EJrfDbqmifcXgDFG-9" target="RrJ1EJrfDbqmifcXgDFG-14">
          <mxGeometry width="50" height="50" relative="1" as="geometry">
            <mxPoint x="760" y="380" as="sourcePoint" />
            <mxPoint x="810" y="330" as="targetPoint" />
          </mxGeometry>
        </mxCell>
        <mxCell id="VFiOyekKrRisP1N4zeyX-9" value="" style="endArrow=none;html=1;rounded=0;entryX=0;entryY=0.5;entryDx=0;entryDy=0;exitX=1;exitY=0.5;exitDx=0;exitDy=0;strokeWidth=1;fontFamily=宋体;" edge="1" parent="1" source="RrJ1EJrfDbqmifcXgDFG-9" target="RrJ1EJrfDbqmifcXgDFG-17">
          <mxGeometry width="50" height="50" relative="1" as="geometry">
            <mxPoint x="1003" y="234" as="sourcePoint" />
            <mxPoint x="1092" y="140" as="targetPoint" />
          </mxGeometry>
        </mxCell>
        <mxCell id="VFiOyekKrRisP1N4zeyX-10" value="" style="endArrow=none;html=1;rounded=0;entryX=0;entryY=0.5;entryDx=0;entryDy=0;exitX=1;exitY=0.5;exitDx=0;exitDy=0;strokeWidth=1;fontFamily=宋体;" edge="1" parent="1" source="RrJ1EJrfDbqmifcXgDFG-13" target="RrJ1EJrfDbqmifcXgDFG-19">
          <mxGeometry width="50" height="50" relative="1" as="geometry">
            <mxPoint x="971" y="212" as="sourcePoint" />
            <mxPoint x="1092" y="212" as="targetPoint" />
          </mxGeometry>
        </mxCell>
        <mxCell id="VFiOyekKrRisP1N4zeyX-11" value="" style="endArrow=none;html=1;rounded=0;entryX=0;entryY=0.5;entryDx=0;entryDy=0;exitX=1;exitY=0.5;exitDx=0;exitDy=0;strokeWidth=1;fontFamily=宋体;" edge="1" parent="1" source="RrJ1EJrfDbqmifcXgDFG-13" target="RrJ1EJrfDbqmifcXgDFG-20">
          <mxGeometry width="50" height="50" relative="1" as="geometry">
            <mxPoint x="971" y="401" as="sourcePoint" />
            <mxPoint x="1092" y="310" as="targetPoint" />
          </mxGeometry>
        </mxCell>
        <mxCell id="VFiOyekKrRisP1N4zeyX-12" value="" style="endArrow=none;html=1;rounded=0;entryX=0;entryY=0.5;entryDx=0;entryDy=0;exitX=1;exitY=0.5;exitDx=0;exitDy=0;strokeWidth=1;fontFamily=宋体;" edge="1" parent="1" source="RrJ1EJrfDbqmifcXgDFG-13" target="RrJ1EJrfDbqmifcXgDFG-21">
          <mxGeometry width="50" height="50" relative="1" as="geometry">
            <mxPoint x="957" y="421" as="sourcePoint" />
            <mxPoint x="1097" y="348" as="targetPoint" />
          </mxGeometry>
        </mxCell>
        <mxCell id="VFiOyekKrRisP1N4zeyX-13" value="" style="endArrow=none;html=1;rounded=0;entryX=0;entryY=0.5;entryDx=0;entryDy=0;exitX=1;exitY=0.5;exitDx=0;exitDy=0;strokeWidth=1;fontFamily=宋体;" edge="1" parent="1" source="RrJ1EJrfDbqmifcXgDFG-12" target="RrJ1EJrfDbqmifcXgDFG-22">
          <mxGeometry width="50" height="50" relative="1" as="geometry">
            <mxPoint x="971" y="401" as="sourcePoint" />
            <mxPoint x="1092" y="414" as="targetPoint" />
          </mxGeometry>
        </mxCell>
        <mxCell id="VFiOyekKrRisP1N4zeyX-14" value="" style="endArrow=none;html=1;rounded=0;entryX=0;entryY=0.5;entryDx=0;entryDy=0;exitX=1;exitY=0.5;exitDx=0;exitDy=0;strokeWidth=1;fontFamily=宋体;" edge="1" parent="1" source="RrJ1EJrfDbqmifcXgDFG-12" target="RrJ1EJrfDbqmifcXgDFG-23">
          <mxGeometry width="50" height="50" relative="1" as="geometry">
            <mxPoint x="971" y="497" as="sourcePoint" />
            <mxPoint x="1092" y="472" as="targetPoint" />
          </mxGeometry>
        </mxCell>
        <mxCell id="VFiOyekKrRisP1N4zeyX-15" value="" style="endArrow=none;html=1;rounded=0;entryX=0;entryY=0.5;entryDx=0;entryDy=0;exitX=1;exitY=0.5;exitDx=0;exitDy=0;strokeWidth=1;fontFamily=宋体;" edge="1" parent="1" source="RrJ1EJrfDbqmifcXgDFG-12" target="VFiOyekKrRisP1N4zeyX-1">
          <mxGeometry width="50" height="50" relative="1" as="geometry">
            <mxPoint x="981" y="507" as="sourcePoint" />
            <mxPoint x="1102" y="482" as="targetPoint" />
          </mxGeometry>
        </mxCell>
        <mxCell id="VFiOyekKrRisP1N4zeyX-18" value="Actor" style="shape=umlActor;verticalLabelPosition=bottom;verticalAlign=top;html=1;outlineConnect=0;" vertex="1" parent="1">
          <mxGeometry x="636" y="264.5" width="30" height="60" as="geometry" />
        </mxCell>
      </root>
    </mxGraphModel>
  </diagram>
  <diagram id="6bO4OUiw8RoJI6n5Rb2M" name="第 6 页">
    <mxGraphModel dx="1488" dy="619" grid="0" gridSize="10" guides="1" tooltips="1" connect="1" arrows="1" fold="1" page="0" pageScale="1" pageWidth="827" pageHeight="1169" math="0" shadow="0">
      <root>
        <mxCell id="0" />
        <mxCell id="1" parent="0" />
        <mxCell id="ZiGixqlXkFMbF9NBequ8-31" value="" style="edgeStyle=orthogonalEdgeStyle;rounded=0;orthogonalLoop=1;jettySize=auto;html=1;fontFamily=宋体;" edge="1" parent="1" source="ZiGixqlXkFMbF9NBequ8-29" target="ZiGixqlXkFMbF9NBequ8-30">
          <mxGeometry relative="1" as="geometry" />
        </mxCell>
        <mxCell id="ZiGixqlXkFMbF9NBequ8-29" value="管理员" style="strokeWidth=2;html=1;shape=mxgraph.flowchart.terminator;whiteSpace=wrap;fontFamily=宋体;" vertex="1" parent="1">
          <mxGeometry x="-170" y="166" width="100" height="57" as="geometry" />
        </mxCell>
        <mxCell id="ZiGixqlXkFMbF9NBequ8-33" value="" style="edgeStyle=orthogonalEdgeStyle;rounded=0;orthogonalLoop=1;jettySize=auto;html=1;fontFamily=宋体;" edge="1" parent="1" source="ZiGixqlXkFMbF9NBequ8-30" target="ZiGixqlXkFMbF9NBequ8-32">
          <mxGeometry relative="1" as="geometry" />
        </mxCell>
        <mxCell id="ZiGixqlXkFMbF9NBequ8-30" value="登录" style="whiteSpace=wrap;html=1;strokeWidth=2;fontFamily=宋体;" vertex="1" parent="1">
          <mxGeometry x="-180" y="301.5" width="120" height="60.5" as="geometry" />
        </mxCell>
        <mxCell id="ZiGixqlXkFMbF9NBequ8-35" value="" style="edgeStyle=orthogonalEdgeStyle;rounded=0;orthogonalLoop=1;jettySize=auto;html=1;fontFamily=宋体;" edge="1" parent="1" source="ZiGixqlXkFMbF9NBequ8-32" target="ZiGixqlXkFMbF9NBequ8-34">
          <mxGeometry relative="1" as="geometry" />
        </mxCell>
        <mxCell id="ZiGixqlXkFMbF9NBequ8-37" value="错误" style="edgeLabel;html=1;align=center;verticalAlign=middle;resizable=0;points=[];fontFamily=宋体;" vertex="1" connectable="0" parent="ZiGixqlXkFMbF9NBequ8-35">
          <mxGeometry x="-0.2067" y="-2" relative="1" as="geometry">
            <mxPoint as="offset" />
          </mxGeometry>
        </mxCell>
        <mxCell id="ZiGixqlXkFMbF9NBequ8-43" value="" style="edgeStyle=orthogonalEdgeStyle;rounded=0;orthogonalLoop=1;jettySize=auto;html=1;fontFamily=宋体;" edge="1" parent="1" source="ZiGixqlXkFMbF9NBequ8-32" target="ZiGixqlXkFMbF9NBequ8-42">
          <mxGeometry relative="1" as="geometry" />
        </mxCell>
        <mxCell id="ZiGixqlXkFMbF9NBequ8-44" value="正确" style="edgeLabel;html=1;align=center;verticalAlign=middle;resizable=0;points=[];fontFamily=宋体;" vertex="1" connectable="0" parent="ZiGixqlXkFMbF9NBequ8-43">
          <mxGeometry x="-0.1833" y="-2" relative="1" as="geometry">
            <mxPoint as="offset" />
          </mxGeometry>
        </mxCell>
        <mxCell id="ZiGixqlXkFMbF9NBequ8-32" value="密码验证" style="rhombus;whiteSpace=wrap;html=1;strokeWidth=2;fontFamily=宋体;" vertex="1" parent="1">
          <mxGeometry x="-160" y="432.25" width="80" height="80" as="geometry" />
        </mxCell>
        <mxCell id="ZiGixqlXkFMbF9NBequ8-39" value="" style="edgeStyle=orthogonalEdgeStyle;rounded=0;orthogonalLoop=1;jettySize=auto;html=1;fontFamily=宋体;" edge="1" parent="1" source="ZiGixqlXkFMbF9NBequ8-34" target="ZiGixqlXkFMbF9NBequ8-38">
          <mxGeometry relative="1" as="geometry" />
        </mxCell>
        <mxCell id="ZiGixqlXkFMbF9NBequ8-34" value="用户名或密码错误" style="whiteSpace=wrap;html=1;strokeWidth=2;fontFamily=宋体;" vertex="1" parent="1">
          <mxGeometry x="22" y="440" width="120" height="60" as="geometry" />
        </mxCell>
        <mxCell id="ZiGixqlXkFMbF9NBequ8-40" value="" style="edgeStyle=orthogonalEdgeStyle;rounded=0;orthogonalLoop=1;jettySize=auto;html=1;fontFamily=宋体;" edge="1" parent="1" source="ZiGixqlXkFMbF9NBequ8-38">
          <mxGeometry relative="1" as="geometry">
            <mxPoint x="-118" y="253" as="targetPoint" />
          </mxGeometry>
        </mxCell>
        <mxCell id="ZiGixqlXkFMbF9NBequ8-38" value="重新输入登录信息" style="whiteSpace=wrap;html=1;strokeWidth=2;fontFamily=宋体;" vertex="1" parent="1">
          <mxGeometry x="22" y="223" width="120" height="60" as="geometry" />
        </mxCell>
        <mxCell id="ZiGixqlXkFMbF9NBequ8-42" value="首页信息统计&amp;nbsp;" style="whiteSpace=wrap;html=1;strokeWidth=2;fontFamily=宋体;" vertex="1" parent="1">
          <mxGeometry x="-180" y="602.25" width="120" height="60" as="geometry" />
        </mxCell>
        <mxCell id="ZiGixqlXkFMbF9NBequ8-46" value="" style="endArrow=classic;html=1;rounded=0;edgeStyle=orthogonalEdgeStyle;entryX=0.5;entryY=0;entryDx=0;entryDy=0;fontFamily=宋体;" edge="1" parent="1">
          <mxGeometry width="50" height="50" relative="1" as="geometry">
            <mxPoint x="-120" y="578" as="sourcePoint" />
            <mxPoint x="524" y="602.25" as="targetPoint" />
            <Array as="points">
              <mxPoint x="524" y="578" />
            </Array>
          </mxGeometry>
        </mxCell>
        <mxCell id="ZiGixqlXkFMbF9NBequ8-47" value="" style="endArrow=classic;html=1;rounded=0;fontFamily=宋体;" edge="1" parent="1">
          <mxGeometry width="50" height="50" relative="1" as="geometry">
            <mxPoint x="71" y="577" as="sourcePoint" />
            <mxPoint x="71" y="602" as="targetPoint" />
          </mxGeometry>
        </mxCell>
        <mxCell id="ZiGixqlXkFMbF9NBequ8-48" value="用户管理" style="rounded=0;whiteSpace=wrap;html=1;fontFamily=宋体;strokeWidth=2;" vertex="1" parent="1">
          <mxGeometry x="7" y="602.25" width="120" height="60" as="geometry" />
        </mxCell>
        <mxCell id="ZiGixqlXkFMbF9NBequ8-49" value="电影类型管理" style="rounded=0;whiteSpace=wrap;html=1;fontFamily=宋体;strokeWidth=2;" vertex="1" parent="1">
          <mxGeometry x="172" y="602.25" width="120" height="60" as="geometry" />
        </mxCell>
        <mxCell id="ZiGixqlXkFMbF9NBequ8-50" value="电影管理" style="rounded=0;whiteSpace=wrap;html=1;fontFamily=宋体;strokeWidth=2;" vertex="1" parent="1">
          <mxGeometry x="324" y="602.25" width="120" height="60" as="geometry" />
        </mxCell>
        <mxCell id="ZiGixqlXkFMbF9NBequ8-51" value="评分管理" style="rounded=0;whiteSpace=wrap;html=1;fontFamily=宋体;strokeWidth=2;" vertex="1" parent="1">
          <mxGeometry x="465" y="602.25" width="120" height="60" as="geometry" />
        </mxCell>
        <mxCell id="ZiGixqlXkFMbF9NBequ8-56" value="" style="endArrow=classic;html=1;rounded=0;entryX=0.5;entryY=0;entryDx=0;entryDy=0;fontFamily=宋体;" edge="1" parent="1" target="ZiGixqlXkFMbF9NBequ8-49">
          <mxGeometry width="50" height="50" relative="1" as="geometry">
            <mxPoint x="232" y="578" as="sourcePoint" />
            <mxPoint x="81" y="612" as="targetPoint" />
          </mxGeometry>
        </mxCell>
        <mxCell id="ZiGixqlXkFMbF9NBequ8-57" value="" style="endArrow=classic;html=1;rounded=0;entryX=0.5;entryY=0;entryDx=0;entryDy=0;fontFamily=宋体;" edge="1" parent="1" target="ZiGixqlXkFMbF9NBequ8-50">
          <mxGeometry width="50" height="50" relative="1" as="geometry">
            <mxPoint x="384" y="578" as="sourcePoint" />
            <mxPoint x="91" y="622" as="targetPoint" />
          </mxGeometry>
        </mxCell>
      </root>
    </mxGraphModel>
  </diagram>
  <diagram id="0pUKGXh39ucFCrzJMOUJ" name="第 7 页">
    <mxGraphModel dx="1385" dy="960" grid="0" gridSize="10" guides="1" tooltips="1" connect="1" arrows="1" fold="1" page="0" pageScale="1" pageWidth="827" pageHeight="1169" math="0" shadow="0">
      <root>
        <mxCell id="0" />
        <mxCell id="1" parent="0" />
        <mxCell id="pG4VpJJRhsMQ4typKfkQ-1" value="" style="edgeStyle=orthogonalEdgeStyle;rounded=0;orthogonalLoop=1;jettySize=auto;html=1;fontFamily=宋体;" edge="1" parent="1" source="pG4VpJJRhsMQ4typKfkQ-2" target="pG4VpJJRhsMQ4typKfkQ-4">
          <mxGeometry relative="1" as="geometry" />
        </mxCell>
        <mxCell id="pG4VpJJRhsMQ4typKfkQ-56" style="edgeStyle=orthogonalEdgeStyle;rounded=0;orthogonalLoop=1;jettySize=auto;html=1;exitX=0;exitY=0.5;exitDx=0;exitDy=0;exitPerimeter=0;entryX=0.5;entryY=0;entryDx=0;entryDy=0;fontFamily=宋体;" edge="1" parent="1" source="pG4VpJJRhsMQ4typKfkQ-2" target="pG4VpJJRhsMQ4typKfkQ-29">
          <mxGeometry relative="1" as="geometry" />
        </mxCell>
        <mxCell id="pG4VpJJRhsMQ4typKfkQ-64" value="" style="edgeStyle=orthogonalEdgeStyle;rounded=0;orthogonalLoop=1;jettySize=auto;html=1;" edge="1" parent="1" source="pG4VpJJRhsMQ4typKfkQ-2" target="pG4VpJJRhsMQ4typKfkQ-4">
          <mxGeometry relative="1" as="geometry" />
        </mxCell>
        <mxCell id="pG4VpJJRhsMQ4typKfkQ-2" value="用户" style="strokeWidth=2;html=1;shape=mxgraph.flowchart.terminator;whiteSpace=wrap;fontFamily=宋体;" vertex="1" parent="1">
          <mxGeometry x="-152.5" y="-84" width="109" height="57" as="geometry" />
        </mxCell>
        <mxCell id="pG4VpJJRhsMQ4typKfkQ-3" value="" style="edgeStyle=orthogonalEdgeStyle;rounded=0;orthogonalLoop=1;jettySize=auto;html=1;fontFamily=宋体;" edge="1" parent="1" source="pG4VpJJRhsMQ4typKfkQ-4" target="pG4VpJJRhsMQ4typKfkQ-9">
          <mxGeometry relative="1" as="geometry" />
        </mxCell>
        <mxCell id="pG4VpJJRhsMQ4typKfkQ-4" value="登录" style="whiteSpace=wrap;html=1;strokeWidth=2;fontFamily=宋体;" vertex="1" parent="1">
          <mxGeometry x="-158" y="51.5" width="120" height="60.5" as="geometry" />
        </mxCell>
        <mxCell id="pG4VpJJRhsMQ4typKfkQ-5" value="" style="edgeStyle=orthogonalEdgeStyle;rounded=0;orthogonalLoop=1;jettySize=auto;html=1;fontFamily=宋体;" edge="1" parent="1" source="pG4VpJJRhsMQ4typKfkQ-9" target="pG4VpJJRhsMQ4typKfkQ-11">
          <mxGeometry relative="1" as="geometry" />
        </mxCell>
        <mxCell id="pG4VpJJRhsMQ4typKfkQ-6" value="错误" style="edgeLabel;html=1;align=center;verticalAlign=middle;resizable=0;points=[];fontFamily=宋体;" vertex="1" connectable="0" parent="pG4VpJJRhsMQ4typKfkQ-5">
          <mxGeometry x="-0.2067" y="-2" relative="1" as="geometry">
            <mxPoint x="1" y="-4" as="offset" />
          </mxGeometry>
        </mxCell>
        <mxCell id="pG4VpJJRhsMQ4typKfkQ-7" value="" style="edgeStyle=orthogonalEdgeStyle;rounded=0;orthogonalLoop=1;jettySize=auto;html=1;fontFamily=宋体;" edge="1" parent="1" source="pG4VpJJRhsMQ4typKfkQ-9" target="pG4VpJJRhsMQ4typKfkQ-14">
          <mxGeometry relative="1" as="geometry" />
        </mxCell>
        <mxCell id="pG4VpJJRhsMQ4typKfkQ-8" value="正确" style="edgeLabel;html=1;align=center;verticalAlign=middle;resizable=0;points=[];fontFamily=宋体;" vertex="1" connectable="0" parent="pG4VpJJRhsMQ4typKfkQ-7">
          <mxGeometry x="-0.1833" y="-2" relative="1" as="geometry">
            <mxPoint as="offset" />
          </mxGeometry>
        </mxCell>
        <mxCell id="pG4VpJJRhsMQ4typKfkQ-9" value="密码验证" style="rhombus;whiteSpace=wrap;html=1;strokeWidth=2;fontFamily=宋体;" vertex="1" parent="1">
          <mxGeometry x="-138" y="182.25" width="80" height="80" as="geometry" />
        </mxCell>
        <mxCell id="pG4VpJJRhsMQ4typKfkQ-10" value="" style="edgeStyle=orthogonalEdgeStyle;rounded=0;orthogonalLoop=1;jettySize=auto;html=1;fontFamily=宋体;" edge="1" parent="1" source="pG4VpJJRhsMQ4typKfkQ-11" target="pG4VpJJRhsMQ4typKfkQ-13">
          <mxGeometry relative="1" as="geometry" />
        </mxCell>
        <mxCell id="pG4VpJJRhsMQ4typKfkQ-11" value="用户名或密码错误" style="whiteSpace=wrap;html=1;strokeWidth=2;fontFamily=宋体;" vertex="1" parent="1">
          <mxGeometry x="44" y="190" width="120" height="60" as="geometry" />
        </mxCell>
        <mxCell id="pG4VpJJRhsMQ4typKfkQ-12" value="" style="edgeStyle=orthogonalEdgeStyle;rounded=0;orthogonalLoop=1;jettySize=auto;html=1;fontFamily=宋体;" edge="1" parent="1" source="pG4VpJJRhsMQ4typKfkQ-13">
          <mxGeometry relative="1" as="geometry">
            <mxPoint x="-96" y="3" as="targetPoint" />
          </mxGeometry>
        </mxCell>
        <mxCell id="pG4VpJJRhsMQ4typKfkQ-13" value="重新输入登录信息" style="whiteSpace=wrap;html=1;strokeWidth=2;fontFamily=宋体;" vertex="1" parent="1">
          <mxGeometry x="44" y="-27" width="120" height="60" as="geometry" />
        </mxCell>
        <mxCell id="pG4VpJJRhsMQ4typKfkQ-23" style="edgeStyle=orthogonalEdgeStyle;rounded=0;orthogonalLoop=1;jettySize=auto;html=1;exitX=1;exitY=0.5;exitDx=0;exitDy=0;fontFamily=宋体;" edge="1" parent="1" source="pG4VpJJRhsMQ4typKfkQ-14">
          <mxGeometry relative="1" as="geometry">
            <mxPoint x="34.800048828125" y="483.2000427246094" as="targetPoint" />
          </mxGeometry>
        </mxCell>
        <mxCell id="pG4VpJJRhsMQ4typKfkQ-14" value="前台首页" style="whiteSpace=wrap;html=1;strokeWidth=2;fontFamily=宋体;" vertex="1" parent="1">
          <mxGeometry x="-158" y="352.25" width="120" height="60" as="geometry" />
        </mxCell>
        <mxCell id="pG4VpJJRhsMQ4typKfkQ-25" value="个性化推荐" style="rounded=0;whiteSpace=wrap;html=1;fontFamily=宋体;strokeWidth=2;" vertex="1" parent="1">
          <mxGeometry x="-24" y="484" width="120" height="60" as="geometry" />
        </mxCell>
        <mxCell id="pG4VpJJRhsMQ4typKfkQ-57" style="edgeStyle=orthogonalEdgeStyle;rounded=0;orthogonalLoop=1;jettySize=auto;html=1;entryX=0.5;entryY=0;entryDx=0;entryDy=0;fontFamily=宋体;" edge="1" parent="1" source="pG4VpJJRhsMQ4typKfkQ-29" target="pG4VpJJRhsMQ4typKfkQ-53">
          <mxGeometry relative="1" as="geometry" />
        </mxCell>
        <mxCell id="pG4VpJJRhsMQ4typKfkQ-29" value="搜索电影" style="rounded=0;whiteSpace=wrap;html=1;fontFamily=宋体;strokeWidth=2;" vertex="1" parent="1">
          <mxGeometry x="-293" y="21" width="120" height="60" as="geometry" />
        </mxCell>
        <mxCell id="pG4VpJJRhsMQ4typKfkQ-60" style="edgeStyle=orthogonalEdgeStyle;rounded=0;orthogonalLoop=1;jettySize=auto;html=1;exitX=0.5;exitY=1;exitDx=0;exitDy=0;entryX=0;entryY=0.5;entryDx=0;entryDy=0;fontFamily=宋体;" edge="1" parent="1" source="pG4VpJJRhsMQ4typKfkQ-53" target="pG4VpJJRhsMQ4typKfkQ-14">
          <mxGeometry relative="1" as="geometry">
            <mxPoint x="-233" y="383.20001220703125" as="targetPoint" />
            <Array as="points">
              <mxPoint x="-233" y="382" />
            </Array>
          </mxGeometry>
        </mxCell>
        <mxCell id="pG4VpJJRhsMQ4typKfkQ-53" value="查看电影" style="rounded=0;whiteSpace=wrap;html=1;fontFamily=宋体;strokeWidth=2;" vertex="1" parent="1">
          <mxGeometry x="-293" y="190" width="120" height="60" as="geometry" />
        </mxCell>
        <mxCell id="pG4VpJJRhsMQ4typKfkQ-62" value="" style="endArrow=classic;html=1;rounded=0;entryX=0.5;entryY=0;entryDx=0;entryDy=0;fontFamily=宋体;" edge="1" parent="1" target="pG4VpJJRhsMQ4typKfkQ-63">
          <mxGeometry width="50" height="50" relative="1" as="geometry">
            <mxPoint x="-200" y="382" as="sourcePoint" />
            <mxPoint x="-200" y="472" as="targetPoint" />
          </mxGeometry>
        </mxCell>
        <mxCell id="pG4VpJJRhsMQ4typKfkQ-63" value="电影评分" style="rounded=0;whiteSpace=wrap;html=1;fontFamily=宋体;strokeWidth=2;" vertex="1" parent="1">
          <mxGeometry x="-262" y="484" width="120" height="60" as="geometry" />
        </mxCell>
      </root>
    </mxGraphModel>
  </diagram>
  <diagram id="J-1fShfo6aFHl4Y-g285" name="第 8 页">
    <mxGraphModel dx="1149" dy="1053" grid="0" gridSize="10" guides="1" tooltips="1" connect="1" arrows="1" fold="1" page="0" pageScale="1" pageWidth="827" pageHeight="1169" math="0" shadow="0">
      <root>
        <mxCell id="0" />
        <mxCell id="1" parent="0" />
        <mxCell id="_pIPMNo8CQm8vCQxrLDj-1" value="&lt;font&gt;协同过滤电影推荐系统&lt;/font&gt;" style="rounded=0;whiteSpace=wrap;html=1;fontFamily=宋体;" vertex="1" parent="1">
          <mxGeometry x="308.91" y="-117" width="151" height="40" as="geometry" />
        </mxCell>
        <mxCell id="P8YmG2FhAvAFQ_kHeSkp-2" value="" style="strokeWidth=1;html=1;shape=mxgraph.flowchart.annotation_2;align=left;labelPosition=right;pointerEvents=1;fontFamily=宋体;fontSize=11;fontColor=default;labelBackgroundColor=default;direction=south;fontStyle=0" vertex="1" parent="1">
          <mxGeometry x="132" y="-77" width="504.82" height="51" as="geometry" />
        </mxCell>
        <mxCell id="P8YmG2FhAvAFQ_kHeSkp-4" value="管理员" style="rounded=0;whiteSpace=wrap;html=1;fontFamily=宋体;fontSize=11;fontColor=default;labelBackgroundColor=default;" vertex="1" parent="1">
          <mxGeometry x="577" y="-25" width="120" height="40" as="geometry" />
        </mxCell>
        <mxCell id="P8YmG2FhAvAFQ_kHeSkp-5" value="用户" style="rounded=0;whiteSpace=wrap;html=1;fontFamily=宋体;fontSize=11;fontColor=default;labelBackgroundColor=default;" vertex="1" parent="1">
          <mxGeometry x="74" y="-29" width="120" height="40" as="geometry" />
        </mxCell>
        <mxCell id="P8YmG2FhAvAFQ_kHeSkp-17" style="edgeStyle=none;shape=connector;rounded=0;orthogonalLoop=1;jettySize=auto;html=1;exitX=0.5;exitY=0;exitDx=0;exitDy=0;exitPerimeter=0;strokeColor=default;align=center;verticalAlign=middle;fontFamily=宋体;fontSize=11;fontColor=default;labelBackgroundColor=default;endArrow=none;entryX=0;entryY=0.5;entryDx=0;entryDy=0;" edge="1" parent="1" source="P8YmG2FhAvAFQ_kHeSkp-8" target="P8YmG2FhAvAFQ_kHeSkp-28">
          <mxGeometry relative="1" as="geometry">
            <mxPoint x="272" y="64" as="targetPoint" />
            <Array as="points">
              <mxPoint x="237" y="36" />
              <mxPoint x="394" y="36" />
            </Array>
          </mxGeometry>
        </mxCell>
        <mxCell id="P8YmG2FhAvAFQ_kHeSkp-24" style="edgeStyle=none;shape=connector;rounded=0;orthogonalLoop=1;jettySize=auto;html=1;exitX=0.5;exitY=1;exitDx=0;exitDy=0;exitPerimeter=0;strokeColor=default;align=center;verticalAlign=middle;fontFamily=宋体;fontSize=11;fontColor=default;labelBackgroundColor=default;endArrow=none;" edge="1" parent="1" source="P8YmG2FhAvAFQ_kHeSkp-8">
          <mxGeometry relative="1" as="geometry">
            <mxPoint x="31" y="36" as="targetPoint" />
            <Array as="points">
              <mxPoint x="31" y="36" />
              <mxPoint x="31" y="66" />
            </Array>
          </mxGeometry>
        </mxCell>
        <mxCell id="P8YmG2FhAvAFQ_kHeSkp-8" value="" style="strokeWidth=1;html=1;shape=mxgraph.flowchart.annotation_2;align=left;labelPosition=right;pointerEvents=1;fontFamily=宋体;fontSize=11;fontColor=default;labelBackgroundColor=default;direction=south;fontStyle=0" vertex="1" parent="1">
          <mxGeometry x="74" y="11" width="113" height="50" as="geometry" />
        </mxCell>
        <mxCell id="P8YmG2FhAvAFQ_kHeSkp-15" value="注&lt;div&gt;册&lt;/div&gt;&lt;div&gt;登&lt;/div&gt;&lt;div&gt;录&lt;/div&gt;" style="rounded=0;whiteSpace=wrap;html=1;fontFamily=宋体;fontSize=11;fontColor=default;labelBackgroundColor=default;direction=south;" vertex="1" parent="1">
          <mxGeometry x="16" y="61" width="29" height="96" as="geometry" />
        </mxCell>
        <mxCell id="P8YmG2FhAvAFQ_kHeSkp-16" value="&lt;div&gt;查&lt;/div&gt;&lt;div&gt;询&lt;/div&gt;电&lt;div&gt;影&lt;/div&gt;&lt;div&gt;信&lt;/div&gt;&lt;div&gt;息&lt;/div&gt;" style="rounded=0;whiteSpace=wrap;html=1;fontFamily=宋体;fontSize=11;fontColor=default;labelBackgroundColor=default;direction=south;" vertex="1" parent="1">
          <mxGeometry x="116" y="61" width="29" height="96" as="geometry" />
        </mxCell>
        <mxCell id="P8YmG2FhAvAFQ_kHeSkp-18" value="最&lt;div&gt;近&lt;/div&gt;&lt;div&gt;更&lt;/div&gt;&lt;div&gt;新&lt;/div&gt;" style="rounded=0;whiteSpace=wrap;html=1;fontFamily=宋体;fontSize=11;fontColor=default;labelBackgroundColor=default;direction=south;" vertex="1" parent="1">
          <mxGeometry x="174" y="61" width="29" height="96" as="geometry" />
        </mxCell>
        <mxCell id="P8YmG2FhAvAFQ_kHeSkp-21" style="edgeStyle=none;shape=connector;rounded=0;orthogonalLoop=1;jettySize=auto;html=1;exitX=1;exitY=0.5;exitDx=0;exitDy=0;exitPerimeter=0;entryX=0.462;entryY=0.502;entryDx=0;entryDy=0;entryPerimeter=0;strokeColor=default;align=center;verticalAlign=middle;fontFamily=宋体;fontSize=11;fontColor=default;labelBackgroundColor=default;endArrow=none;" edge="1" parent="1" source="P8YmG2FhAvAFQ_kHeSkp-8" target="P8YmG2FhAvAFQ_kHeSkp-8">
          <mxGeometry relative="1" as="geometry" />
        </mxCell>
        <mxCell id="P8YmG2FhAvAFQ_kHeSkp-22" value="评&lt;div&gt;论&lt;/div&gt;&lt;div&gt;电&lt;/div&gt;&lt;div&gt;影&lt;/div&gt;" style="rounded=0;whiteSpace=wrap;html=1;fontFamily=宋体;fontSize=11;fontColor=default;labelBackgroundColor=default;direction=south;" vertex="1" parent="1">
          <mxGeometry x="59" y="61" width="29" height="96" as="geometry" />
        </mxCell>
        <mxCell id="P8YmG2FhAvAFQ_kHeSkp-30" style="edgeStyle=none;shape=connector;rounded=0;orthogonalLoop=1;jettySize=auto;html=1;exitX=0;exitY=0.5;exitDx=0;exitDy=0;strokeColor=default;align=center;verticalAlign=middle;fontFamily=宋体;fontSize=11;fontColor=default;labelBackgroundColor=default;endArrow=none;" edge="1" parent="1" source="P8YmG2FhAvAFQ_kHeSkp-25">
          <mxGeometry relative="1" as="geometry">
            <mxPoint x="241" y="36" as="targetPoint" />
          </mxGeometry>
        </mxCell>
        <mxCell id="P8YmG2FhAvAFQ_kHeSkp-25" value="电&lt;div&gt;影&lt;/div&gt;&lt;div&gt;推&lt;/div&gt;&lt;div&gt;荐&lt;/div&gt;" style="rounded=0;whiteSpace=wrap;html=1;fontFamily=宋体;fontSize=11;fontColor=default;labelBackgroundColor=default;direction=south;" vertex="1" parent="1">
          <mxGeometry x="226" y="61" width="29" height="96" as="geometry" />
        </mxCell>
        <mxCell id="P8YmG2FhAvAFQ_kHeSkp-29" style="edgeStyle=none;shape=connector;rounded=0;orthogonalLoop=1;jettySize=auto;html=1;exitX=0;exitY=0.5;exitDx=0;exitDy=0;strokeColor=default;align=center;verticalAlign=middle;fontFamily=宋体;fontSize=11;fontColor=default;labelBackgroundColor=default;endArrow=none;" edge="1" parent="1" source="P8YmG2FhAvAFQ_kHeSkp-27">
          <mxGeometry relative="1" as="geometry">
            <mxPoint x="289" y="36" as="targetPoint" />
          </mxGeometry>
        </mxCell>
        <mxCell id="P8YmG2FhAvAFQ_kHeSkp-27" value="电&lt;div&gt;影&lt;/div&gt;&lt;div&gt;评&lt;/div&gt;&lt;div&gt;分&lt;/div&gt;" style="rounded=0;whiteSpace=wrap;html=1;fontFamily=宋体;fontSize=11;fontColor=default;labelBackgroundColor=default;direction=south;" vertex="1" parent="1">
          <mxGeometry x="274" y="61" width="29" height="96" as="geometry" />
        </mxCell>
        <mxCell id="P8YmG2FhAvAFQ_kHeSkp-28" value="个&lt;div&gt;人&lt;/div&gt;&lt;div&gt;中&lt;/div&gt;&lt;div&gt;心&lt;/div&gt;" style="rounded=0;whiteSpace=wrap;html=1;fontFamily=宋体;fontSize=11;fontColor=default;labelBackgroundColor=default;direction=south;" vertex="1" parent="1">
          <mxGeometry x="379" y="61" width="29" height="96" as="geometry" />
        </mxCell>
        <mxCell id="P8YmG2FhAvAFQ_kHeSkp-57" style="edgeStyle=none;shape=connector;rounded=0;orthogonalLoop=1;jettySize=auto;html=1;exitX=0.5;exitY=1;exitDx=0;exitDy=0;exitPerimeter=0;entryX=0;entryY=0.5;entryDx=0;entryDy=0;strokeColor=default;align=center;verticalAlign=middle;fontFamily=宋体;fontSize=11;fontColor=default;labelBackgroundColor=default;endArrow=none;" edge="1" parent="1" source="P8YmG2FhAvAFQ_kHeSkp-33" target="P8YmG2FhAvAFQ_kHeSkp-34">
          <mxGeometry relative="1" as="geometry">
            <Array as="points">
              <mxPoint x="524" y="40" />
            </Array>
          </mxGeometry>
        </mxCell>
        <mxCell id="P8YmG2FhAvAFQ_kHeSkp-33" value="" style="strokeWidth=1;html=1;shape=mxgraph.flowchart.annotation_2;align=left;labelPosition=right;pointerEvents=1;fontFamily=宋体;fontSize=11;fontColor=default;labelBackgroundColor=default;direction=south;fontStyle=0" vertex="1" parent="1">
          <mxGeometry x="584" y="15" width="113" height="50" as="geometry" />
        </mxCell>
        <mxCell id="P8YmG2FhAvAFQ_kHeSkp-34" value="用&lt;div&gt;户&lt;/div&gt;&lt;div&gt;管&lt;/div&gt;&lt;div&gt;理&lt;/div&gt;" style="rounded=0;whiteSpace=wrap;html=1;fontFamily=宋体;fontSize=11;fontColor=default;labelBackgroundColor=default;direction=south;" vertex="1" parent="1">
          <mxGeometry x="510" y="65" width="29" height="96" as="geometry" />
        </mxCell>
        <mxCell id="P8YmG2FhAvAFQ_kHeSkp-35" value="电&lt;div&gt;影&lt;/div&gt;&lt;div&gt;分&lt;/div&gt;&lt;div&gt;类&lt;/div&gt;&lt;div&gt;管&lt;/div&gt;&lt;div&gt;理&lt;/div&gt;" style="rounded=0;whiteSpace=wrap;html=1;fontFamily=宋体;fontSize=11;fontColor=default;labelBackgroundColor=default;direction=south;" vertex="1" parent="1">
          <mxGeometry x="627.5" y="65" width="29" height="96" as="geometry" />
        </mxCell>
        <mxCell id="P8YmG2FhAvAFQ_kHeSkp-36" value="系&lt;div&gt;统&lt;/div&gt;&lt;div&gt;管&lt;/div&gt;&lt;div&gt;理&lt;/div&gt;" style="rounded=0;whiteSpace=wrap;html=1;fontFamily=宋体;fontSize=11;fontColor=default;labelBackgroundColor=default;direction=south;" vertex="1" parent="1">
          <mxGeometry x="682" y="65" width="29" height="96" as="geometry" />
        </mxCell>
        <mxCell id="P8YmG2FhAvAFQ_kHeSkp-37" style="edgeStyle=none;shape=connector;rounded=0;orthogonalLoop=1;jettySize=auto;html=1;exitX=1;exitY=0.5;exitDx=0;exitDy=0;exitPerimeter=0;entryX=0.462;entryY=0.502;entryDx=0;entryDy=0;entryPerimeter=0;strokeColor=default;align=center;verticalAlign=middle;fontFamily=宋体;fontSize=11;fontColor=default;labelBackgroundColor=default;endArrow=none;" edge="1" parent="1" source="P8YmG2FhAvAFQ_kHeSkp-33" target="P8YmG2FhAvAFQ_kHeSkp-33">
          <mxGeometry relative="1" as="geometry" />
        </mxCell>
        <mxCell id="P8YmG2FhAvAFQ_kHeSkp-38" value="电&lt;div&gt;影&lt;/div&gt;&lt;div&gt;信&lt;/div&gt;&lt;div&gt;息&lt;/div&gt;&lt;div&gt;管&lt;/div&gt;&lt;div&gt;理&lt;/div&gt;" style="rounded=0;whiteSpace=wrap;html=1;fontFamily=宋体;fontSize=11;fontColor=default;labelBackgroundColor=default;direction=south;" vertex="1" parent="1">
          <mxGeometry x="570" y="65" width="29" height="96" as="geometry" />
        </mxCell>
        <mxCell id="P8YmG2FhAvAFQ_kHeSkp-61" style="edgeStyle=none;shape=connector;rounded=0;orthogonalLoop=1;jettySize=auto;html=1;exitX=0;exitY=0.5;exitDx=0;exitDy=0;strokeColor=default;align=center;verticalAlign=middle;fontFamily=宋体;fontSize=11;fontColor=default;labelBackgroundColor=default;endArrow=none;" edge="1" parent="1" source="P8YmG2FhAvAFQ_kHeSkp-60">
          <mxGeometry relative="1" as="geometry">
            <mxPoint x="343.2222222222222" y="36.777798122829836" as="targetPoint" />
          </mxGeometry>
        </mxCell>
        <mxCell id="P8YmG2FhAvAFQ_kHeSkp-60" value="收&lt;div&gt;藏&lt;/div&gt;&lt;div&gt;电&lt;/div&gt;&lt;div&gt;影&lt;/div&gt;" style="rounded=0;whiteSpace=wrap;html=1;fontFamily=宋体;fontSize=11;fontColor=default;labelBackgroundColor=default;direction=south;" vertex="1" parent="1">
          <mxGeometry x="329" y="61" width="29" height="96" as="geometry" />
        </mxCell>
      </root>
    </mxGraphModel>
  </diagram>
</mxfile>
